<svg width="2343" height="1583" xmlns="http://www.w3.org/2000/svg" xmlns:xlink="http://www.w3.org/1999/xlink" xml:space="preserve" overflow="hidden"><defs><clipPath id="clip0"><rect x="1030" y="445" width="2343" height="1583"/></clipPath></defs><g clip-path="url(#clip0)" transform="translate(-1030 -445)"><path d="M1030 2028 3373 2028 3373 445 1030 445Z" fill="#FFFFFF" fill-rule="evenodd"/><path d="M1129 968 1760 968 1760 627 1129 627Z" fill="#FFFFFF" fill-rule="evenodd"/><path d="M1364.4 799.826C1362.81 799.826 1361.37 800.232 1360.09 801.042 1358.81 801.853 1357.79 803.102 1357.03 804.791 1356.27 806.48 1355.89 808.567 1355.89 811.052 1355.89 813.781 1356.29 816.024 1357.09 817.78 1357.89 819.536 1358.92 820.786 1360.19 821.529 1361.46 822.272 1362.86 822.643 1364.4 822.643 1366.73 822.643 1368.94 821.718 1371.03 819.867 1373.12 818.016 1375.2 815.159 1377.25 811.296 1374.87 807.162 1372.69 804.217 1370.69 802.461 1368.69 800.705 1366.59 799.826 1364.4 799.826ZM1397.68 791.032C1399.03 791.032 1400.19 791.154 1401.16 791.397L1399.87 797.678C1399.06 797.543 1398.3 797.476 1397.6 797.476 1395.76 797.476 1394.12 797.895 1392.67 798.732 1391.23 799.57 1389.75 800.948 1388.26 802.866 1386.76 804.784 1384.95 807.594 1382.84 811.296 1384.17 813.862 1385.46 816.058 1386.72 817.881 1387.97 819.705 1389.17 821.124 1390.32 822.137 1391.47 823.15 1392.63 823.893 1393.79 824.366 1394.95 824.839 1396.23 825.075 1397.64 825.075 1398.47 825.075 1399.2 825.021 1399.83 824.913L1401.2 830.83C1399.47 831.262 1397.91 831.478 1396.5 831.478 1393.04 831.478 1390.03 830.276 1387.46 827.871 1384.9 825.467 1382.43 821.644 1380.05 816.402 1377.4 820.887 1374.81 824.116 1372.29 826.088 1369.76 828.06 1367 829.047 1364 829.047 1361.43 829.047 1359.16 828.263 1357.17 826.696 1355.18 825.129 1353.66 823.001 1352.59 820.313 1351.52 817.625 1350.99 814.646 1350.99 811.377 1350.99 808.053 1351.58 804.994 1352.77 802.197 1353.96 799.401 1355.57 797.239 1357.6 795.713 1359.62 794.186 1361.89 793.423 1364.4 793.423 1366.54 793.423 1368.42 793.835 1370.06 794.659 1371.69 795.483 1373.27 796.773 1374.8 798.53 1376.33 800.286 1378.08 802.839 1380.05 806.189 1381.86 802.731 1383.62 799.874 1385.34 797.618 1387.05 795.362 1388.86 793.7 1390.77 792.633 1392.67 791.566 1394.98 791.032 1397.68 791.032Z" fill="#FF0000" fill-rule="evenodd"/><text fill="#000000" fill-opacity="0" font-family="Arial,Arial_MSFontService,sans-serif" font-size="40.4463" x="1350.99" y="826.422">∝</text><path d="M1487.85 716.547 1490.08 716.547C1489.91 719.141 1489.83 722.735 1489.83 727.328L1489.83 761.938C1489.83 763.505 1489.92 764.687 1490.1 765.484 1490.27 766.281 1490.58 766.93 1491.03 767.43 1491.47 767.929 1492.12 768.321 1492.95 768.605 1493.79 768.889 1494.84 769.105 1496.11 769.253 1497.38 769.402 1499.06 769.503 1501.14 769.557L1501.14 772.516 1471.19 772.516 1471.19 769.557C1474.19 769.422 1476.33 769.24 1477.61 769.01 1478.9 768.78 1479.88 768.436 1480.55 767.977 1481.23 767.517 1481.72 766.869 1482.03 766.031 1482.34 765.194 1482.5 763.829 1482.5 761.938L1482.5 729.07C1482.5 727.99 1482.31 727.199 1481.93 726.7 1481.55 726.2 1481 725.95 1480.27 725.95 1479.4 725.95 1478.17 726.396 1476.58 727.287 1474.99 728.179 1473.01 729.408 1470.66 730.975L1468.88 727.855Z" fill="#FF0000" fill-rule="evenodd"/><text fill="#000000" fill-opacity="0" font-family="Arial,Arial_MSFontService,sans-serif" font-size="55.9683" x="1468.88" y="765.52">1</text><path d="M1440.04 850.714C1441.74 850.714 1443.09 851.274 1444.07 852.396 1445.06 853.517 1445.55 854.983 1445.55 856.793 1445.55 858.144 1445.29 859.535 1444.78 860.967L1445.31 861.17C1447.96 857.576 1450.5 854.942 1452.95 853.267 1455.39 851.592 1457.87 850.754 1460.38 850.754 1462.36 850.754 1464 850.903 1465.33 851.2L1463.38 860.278 1459.21 860.278C1459.05 859.144 1458.82 858.265 1458.52 857.644 1458.22 857.023 1457.87 856.59 1457.47 856.347 1457.06 856.104 1456.55 855.982 1455.93 855.982 1454.95 855.982 1453.89 856.401 1452.74 857.239 1451.6 858.076 1450.31 859.387 1448.87 861.17 1447.44 862.953 1446.3 864.669 1445.45 866.317 1444.6 867.965 1443.89 870.059 1443.32 872.599L1439.47 890.147 1432.46 890.147 1438.34 864.453C1438.72 862.832 1438.96 861.575 1439.07 860.684 1439.17 859.792 1439.23 859.049 1439.23 858.455 1439.23 857.374 1439.05 856.59 1438.7 856.104 1438.35 855.618 1437.8 855.375 1437.04 855.375 1436.2 855.375 1435.32 855.719 1434.39 856.408 1433.45 857.097 1432.18 858.346 1430.56 860.157L1428.25 857.887C1430.73 855.293 1432.81 853.449 1434.49 852.355 1436.16 851.261 1438.01 850.714 1440.04 850.714Z" fill="#FF0000" fill-rule="evenodd"/><text fill="#000000" fill-opacity="0" font-family="Arial,Arial_MSFontService,sans-serif" font-size="39.4331" x="1428.25" y="885.218">𝑟</text><path d="M1488.65 827.011 1490.46 827.011C1490.42 828.103 1490.39 829.081 1490.37 829.945 1490.35 830.808 1490.34 831.647 1490.33 832.461 1490.32 833.276 1490.31 834.08 1490.31 834.874L1490.31 857.511C1490.31 858.126 1490.33 858.658 1490.37 859.104 1490.41 859.551 1490.48 859.928 1490.57 860.236 1490.66 860.544 1490.78 860.807 1490.92 861.025 1491.07 861.244 1491.25 861.432 1491.45 861.591 1491.68 861.83 1492 862.013 1492.4 862.142 1492.8 862.271 1493.3 862.381 1493.92 862.47 1494.53 862.559 1495.27 862.629 1496.14 862.679 1497 862.728 1498.04 862.763 1499.25 862.783L1499.25 865.374 1475.63 865.374 1475.63 862.783C1476.8 862.743 1477.79 862.698 1478.61 862.649 1479.42 862.599 1480.12 862.53 1480.69 862.44 1481.27 862.351 1481.73 862.252 1482.08 862.142 1482.43 862.033 1482.73 861.899 1482.99 861.74 1483.26 861.562 1483.5 861.368 1483.7 861.159 1483.9 860.951 1484.06 860.688 1484.18 860.37 1484.3 860.052 1484.39 859.665 1484.46 859.209 1484.53 858.752 1484.56 858.186 1484.56 857.511L1484.56 836.155C1484.56 835.38 1484.42 834.834 1484.12 834.517 1483.82 834.199 1483.39 834.04 1482.84 834.04 1482.22 834.04 1481.31 834.358 1480.1 834.993 1478.89 835.629 1477.32 836.572 1475.39 837.823 1475.13 837.366 1474.89 836.909 1474.68 836.453 1474.46 835.996 1474.23 835.529 1473.99 835.053 1476.45 833.703 1478.89 832.357 1481.3 831.017 1483.72 829.677 1486.16 828.341 1488.65 827.011ZM1521.32 826.802C1523.39 826.802 1525.15 827.036 1526.61 827.502 1528.07 827.969 1529.26 828.599 1530.17 829.394 1531.08 830.188 1531.74 831.141 1532.15 832.253 1532.56 833.365 1532.76 834.566 1532.76 835.857 1532.76 836.631 1532.71 837.351 1532.6 838.016 1532.49 838.682 1532.3 839.337 1532.03 839.982 1531.76 840.628 1531.41 841.278 1530.97 841.933 1530.54 842.588 1529.99 843.283 1529.33 844.018 1528.84 844.654 1528.19 845.388 1527.4 846.222 1526.6 847.056 1525.74 847.95 1524.79 848.903 1523.85 849.856 1522.86 850.849 1521.83 851.881 1520.8 852.914 1519.79 853.937 1518.82 854.949 1517.85 855.962 1516.95 856.945 1516.14 857.898 1515.33 858.851 1514.66 859.725 1514.14 860.519L1525.16 860.519C1526.1 860.519 1526.84 860.484 1527.4 860.415 1527.95 860.345 1528.42 860.191 1528.78 859.953 1529.15 859.715 1529.46 859.353 1529.72 858.866 1529.98 858.38 1530.28 857.709 1530.62 856.856L1533.39 856.856C1533.29 858.265 1533.19 859.685 1533.1 861.115 1533.01 862.544 1532.92 863.964 1532.82 865.374L1507.59 865.374 1507.59 863.825C1508.07 862.753 1508.62 861.696 1509.26 860.653 1509.89 859.611 1510.61 858.553 1511.4 857.481 1512.2 856.409 1513.1 855.302 1514.11 854.16 1515.13 853.018 1516.25 851.832 1517.48 850.601 1519.35 848.734 1520.87 847.141 1522.04 845.82 1523.21 844.5 1524.13 843.323 1524.81 842.291 1525.48 841.258 1525.94 840.305 1526.19 839.431 1526.44 838.557 1526.56 837.624 1526.56 836.631 1526.56 835.619 1526.42 834.685 1526.13 833.832 1525.84 832.978 1525.43 832.253 1524.9 831.657 1524.36 831.062 1523.68 830.595 1522.86 830.257 1522.03 829.92 1521.08 829.751 1520.01 829.751 1518.17 829.751 1516.62 830.252 1515.37 831.255 1514.11 832.258 1513.14 833.712 1512.45 835.619L1508.54 835.619 1508.54 829.811C1511.09 828.758 1513.42 827.994 1515.56 827.517 1517.69 827.041 1519.61 826.802 1521.32 826.802Z" fill="#FF0000" fill-rule="evenodd"/><text fill="#000000" fill-opacity="0" font-family="Arial,Arial_MSFontService,sans-serif" font-size="38.5718" x="1473.99" y="860.553">12</text><path d="M1427.76 808.957 1542.76 808.957 1542.76 813.957 1427.76 813.957Z" fill="#FF0000" fill-rule="evenodd"/><path d="M1194.01 1878.11 1194.01 1894.11" stroke="#000000" stroke-width="3.67208" stroke-linejoin="round" stroke-miterlimit="10" fill="none" fill-rule="evenodd"/><path d="M4.69683 3.06036 20.3161 3.06036 20.3161-0.740363-0.684634-0.740363-0.684634 3.06036C1.01215 4.83564 3.32613 7.21665 6.25661 10.2041 9.19172 13.1959 11.0351 15.1264 11.7865 15.9949 13.2189 17.6175 14.2186 18.9917 14.7858 20.118 15.3577 21.2438 15.6435 22.351 15.6435 23.4389 15.6435 25.2142 15.0266 26.6603 13.7933 27.7768 12.5596 28.8983 10.9524 29.4589 8.97196 29.4589 7.56808 29.4589 6.08643 29.2131 4.52665 28.7215 2.97151 28.2302 1.30755 27.4833-0.464866 26.4812L-0.464866 31.048C1.33609 31.7782 3.0186 32.3294 4.58338 32.7016 6.15243 33.0738 7.58699 33.2597 8.88669 33.2597 12.3138 33.2597 15.0455 32.3937 17.083 30.6614 19.1202 28.9341 20.1387 26.6242 20.1387 23.7324 20.1387 22.3582 19.8833 21.0554 19.3731 19.8245 18.8672 18.5979 17.9407 17.1496 16.5936 15.4794 16.225 15.0451 15.0505 13.7951 13.0698 11.7285 11.094 9.66226 8.30302 6.77301 4.69683 3.06036Z" fill-rule="evenodd" transform="matrix(1 0 0 -1 1161 1944)"/><path d="M-0.372812 4.97757 4.62699 4.97757 4.62699-0.0222298-0.372812-0.0222298-0.372812 4.97757Z" fill-rule="evenodd" transform="matrix(1 0 0 -1 1192 1944)"/><path d="M10.7808 30.654C8.4654 30.654 6.72309 29.4971 5.55317 27.1836 4.38863 24.8746 3.80618 21.3995 3.80618 16.7581 3.80618 12.1356 4.38863 8.66743 5.55317 6.354 6.72309 4.04057 8.4654 2.88368 10.7808 2.88368 13.1153 2.88368 14.8651 4.04057 16.03 6.354 17.1996 8.66743 17.7846 12.1356 17.7846 16.7581 17.7846 21.3995 17.1996 24.8746 16.03 27.1836 14.8651 29.4971 13.1153 30.654 10.7808 30.654ZM10.7808 34.2687C14.5131 34.2687 17.3636 32.7723 19.332 29.7789 21.3004 26.7906 22.2844 22.4503 22.2844 16.7581 22.2844 11.08 21.3004 6.7445 19.332 3.75108 17.3636 0.762757 14.5131-0.731401 10.7808-0.731401 7.05325-0.731401 4.20525 0.762757 2.2372 3.75108 0.268794 6.7445-0.715588 11.08-0.715588 16.7581-0.715588 22.4503 0.268794 26.7906 2.2372 29.7789 4.20525 32.7723 7.05325 34.2687 10.7808 34.2687Z" fill-rule="evenodd" transform="matrix(1 0 0 -1 1205 1945)"/><path d="M1549.04 1878.11 1549.04 1894.11" stroke="#000000" stroke-width="3.67208" stroke-linejoin="round" stroke-miterlimit="10" fill="none" fill-rule="evenodd"/><path d="M4.94919 3.06036 21.3119 3.06036 21.3119-0.740363-0.688446-0.740363-0.688446 3.06036C1.08948 4.83564 3.51324 7.21665 6.58322 10.2041 9.65805 13.1959 11.5892 15.1264 12.3767 15.9949 13.8769 17.6175 14.9242 18.9917 15.5184 20.118 16.1176 21.2438 16.4173 22.351 16.4173 23.4389 16.4173 25.2142 15.7711 26.6603 14.4787 27.7768 13.1862 28.8983 11.5025 29.4589 9.42782 29.4589 7.95712 29.4589 6.40494 29.2131 4.77091 28.7215 3.14174 28.2302 1.39894 27.4833-0.458217 26.4812L-0.458217 31.048C1.42847 31.7782 3.19144 32.3294 4.83034 32.7016 6.47408 33.0738 7.9773 33.2597 9.33887 33.2597 12.9287 33.2597 15.7909 32.3937 17.925 30.6614 20.0591 28.9341 21.1262 26.6242 21.1262 23.7324 21.1262 22.3582 20.8589 21.0554 20.3241 19.8245 19.7941 18.5979 18.8239 17.1496 17.4126 15.4794 17.0261 15.0451 15.7958 13.7951 13.7211 11.7285 11.6513 9.66226 8.72742 6.77301 4.94919 3.06036Z" fill-rule="evenodd" transform="matrix(1 0 0 -1 1516 1944)"/><path d="M-0.343485 4.97757 4.65668 4.97757 4.65668-0.0222298-0.343485-0.0222298-0.343485 4.97757Z" fill-rule="evenodd" transform="matrix(1 0 0 -1 1547 1944)"/><path d="M0.744016 33.2925 18.8021 33.2925 18.8021 29.4901 4.9562 29.4901 4.9562 21.3207C5.62174 21.5445 6.28729 21.7114 6.95283 21.821 7.62314 21.9305 8.29382 21.9853 8.96413 21.9853 12.7583 21.9853 15.7633 20.9656 17.9785 18.9262 20.1988 16.8868 21.3088 14.1255 21.3088 10.6421 21.3088 7.05426 20.1695 4.26442 17.8909 2.2726 15.6126 0.285833 12.4015-0.707914 8.25715-0.707914 6.82889-0.707914 5.37386-0.588606 3.89243-0.350352 2.41539-0.112098 0.887393 0.245102-0.691579 0.72161L-0.691579 5.26033C0.673612 4.53115 2.08501 3.98796 3.5426 3.63076 4.99983 3.2732 6.53994 3.09478 8.16254 3.09478 10.791 3.09478 12.8701 3.77133 14.4003 5.12444 15.9357 6.47755 16.7031 8.3169 16.7031 10.6421 16.7031 12.9627 15.9357 14.7999 14.4003 16.153 12.8701 17.5108 10.791 18.1898 8.16254 18.1898 6.9334 18.1898 5.70681 18.0565 4.48243 17.7898 3.26318 17.523 2.01717 17.106 0.744016 16.539L0.744016 33.2925Z" fill-rule="evenodd" transform="matrix(1 0 0 -1 1560 1945)"/><path d="M1904.08 1878.11 1904.08 1894.11" stroke="#000000" stroke-width="3.67208" stroke-linejoin="round" stroke-miterlimit="10" fill="none" fill-rule="evenodd"/><path d="M14.446 18.1169C16.6097 17.6495 18.2978 16.676 19.5112 15.1961 20.7289 13.7212 21.3378 11.8993 21.3378 9.73026 21.3378 6.40468 20.2037 3.82837 17.9348 2.00169 15.6663 0.179751 12.4425-0.731401 8.26374-0.731401 6.86434-0.731401 5.42205-0.591392 3.93685-0.312103 2.45129-0.03245 0.918514 0.386848-0.66257 0.946155L-0.66257 5.34915C0.588671 4.61155 1.95959 4.05479 3.44948 3.67888 4.9444 3.30297 6.50638 3.11484 8.13469 3.11484 10.967 3.11484 13.1256 3.67888 14.6108 4.80698 16.0963 5.9347 16.8389 7.5758 16.8389 9.73026 16.8389 11.721 16.149 13.2753 14.7687 14.3936 13.3884 15.5166 11.4684 16.0784 9.00886 16.0784L5.11167 16.0784 5.11167 19.8306 9.18803 19.8306C11.4086 19.8306 13.109 20.2787 14.2885 21.1753 15.4684 22.0718 16.0581 23.3636 16.0581 25.0507 16.0581 26.7811 15.4493 28.109 14.2312 29.0344 13.0182 29.9645 11.2774 30.4297 9.00886 30.4297 7.767 30.4297 6.43681 30.2923 5.01866 30.0177 3.60016 29.7475 2.0407 29.3282 0.340658 28.7595L0.340658 32.823C2.05981 33.305 3.66937 33.6663 5.16899 33.9073 6.6686 34.1483 8.08242 34.2687 9.41008 34.2687 12.8437 34.2687 15.5589 33.4807 17.5552 31.9046 19.5563 30.3335 20.557 28.2078 20.557 25.5279 20.557 23.6575 20.0267 22.0791 18.9665 20.7921 17.9063 19.5054 16.3995 18.6135 14.446 18.1169Z" fill-rule="evenodd" transform="matrix(1 0 0 -1 1871 1945)"/><path d="M-0.313749 4.97757 4.68641 4.97757 4.68641-0.0222298-0.313749-0.0222298-0.313749 4.97757Z" fill-rule="evenodd" transform="matrix(1 0 0 -1 1902 1944)"/><path d="M10.8365 30.654C8.52103 30.654 6.77835 29.4971 5.60879 27.1836 4.4439 24.8746 3.86145 21.3995 3.86145 16.7581 3.86145 12.1356 4.4439 8.66743 5.60879 6.354 6.77835 4.04057 8.52103 2.88368 10.8365 2.88368 13.1709 2.88368 14.9208 4.04057 16.0857 6.354 17.2552 8.66743 17.8398 12.1356 17.8398 16.7581 17.8398 21.3995 17.2552 24.8746 16.0857 27.1836 14.9208 29.4971 13.1709 30.654 10.8365 30.654ZM10.8365 34.2687C14.5687 34.2687 17.4192 32.7723 19.3876 29.7789 21.356 26.7906 22.3401 22.4503 22.3401 16.7581 22.3401 11.08 21.356 6.7445 19.3876 3.75108 17.4192 0.762757 14.5687-0.731401 10.8365-0.731401 7.10887-0.731401 4.26087 0.762757 2.29247 3.75108 0.32406 6.7445-0.659963 11.08-0.659963 16.7581-0.659963 22.4503 0.32406 26.7906 2.29247 29.7789 4.26087 32.7723 7.10887 34.2687 10.8365 34.2687Z" fill-rule="evenodd" transform="matrix(1 0 0 -1 1915 1945)"/><path d="M2260.08 1878.11 2260.08 1894.11" stroke="#000000" stroke-width="3.67208" stroke-linejoin="round" stroke-miterlimit="10" fill="none" fill-rule="evenodd"/><path d="M14.4742 18.1169C16.6374 17.6495 18.3259 16.676 19.539 15.1961 20.7567 13.7212 21.3655 11.8993 21.3655 9.73026 21.3655 6.40468 20.2315 3.82837 17.9629 2.00169 15.6944 0.179751 12.4706-0.731401 8.2915-0.731401 6.89246-0.731401 5.4498-0.591392 3.96461-0.312103 2.47941-0.03245 0.946271 0.386848-0.634452 0.946155L-0.634452 5.34915C0.616789 4.61155 1.98735 4.05479 3.47759 3.67888 4.97252 3.30297 6.53414 3.11484 8.16281 3.11484 10.9948 3.11484 13.1537 3.67888 14.6389 4.80698 16.1241 5.9347 16.8667 7.5758 16.8667 9.73026 16.8667 11.721 16.1767 13.2753 14.7964 14.3936 13.4161 15.5166 11.4962 16.0784 9.03662 16.0784L5.13943 16.0784 5.13943 19.8306 9.21578 19.8306C11.4367 19.8306 13.1368 20.2787 14.3163 21.1753 15.4961 22.0718 16.0859 23.3636 16.0859 25.0507 16.0859 26.7811 15.477 28.109 14.2593 29.0344 13.0459 29.9645 11.3052 30.4297 9.03662 30.4297 7.79511 30.4297 6.46493 30.2923 5.04642 30.0177 3.62791 29.7475 2.06846 29.3282 0.368415 28.7595L0.368415 32.823C2.08756 33.305 3.69713 33.6663 5.19674 33.9073 6.69636 34.1483 8.11018 34.2687 9.43784 34.2687 12.8718 34.2687 15.587 33.4807 17.5833 31.9046 19.5844 30.3335 20.5847 28.2078 20.5847 25.5279 20.5847 23.6575 20.0548 22.0791 18.9946 20.7921 17.9341 19.5054 16.4273 18.6135 14.4742 18.1169Z" fill-rule="evenodd" transform="matrix(1 0 0 -1 2227 1945)"/><path d="M-0.284374 4.97757 4.71543 4.97757 4.71543-0.0222298-0.284374-0.0222298-0.284374 4.97757Z" fill-rule="evenodd" transform="matrix(1 0 0 -1 2257 1944)"/><path d="M0.800853 33.2925 18.8586 33.2925 18.8586 29.4901 5.01303 29.4901 5.01303 21.3207C5.67858 21.5445 6.34412 21.7114 7.00967 21.821 7.67998 21.9305 8.35066 21.9853 9.02097 21.9853 12.8151 21.9853 15.8198 20.9656 18.0353 18.9262 20.2553 16.8868 21.3656 14.1255 21.3656 10.6421 21.3656 7.05426 20.2263 4.26442 17.9477 2.2726 15.6691 0.285833 12.458-0.707914 8.31399-0.707914 6.88573-0.707914 5.4307-0.588606 3.9489-0.350352 2.47223-0.112098 0.94423 0.245102-0.634742 0.72161L-0.634742 5.26033C0.730449 4.53115 2.14184 3.98796 3.59907 3.63076 5.05667 3.2732 6.59677 3.09478 8.21938 3.09478 10.8475 3.09478 12.927 3.77133 14.4572 5.12444 15.9925 6.47755 16.76 8.3169 16.76 10.6421 16.76 12.9627 15.9925 14.7999 14.4572 16.153 12.927 17.5108 10.8475 18.1898 8.21938 18.1898 6.99023 18.1898 5.76365 18.0565 4.53927 17.7898 3.32002 17.523 2.07364 17.106 0.800853 16.539L0.800853 33.2925Z" fill-rule="evenodd" transform="matrix(1 0 0 -1 2270 1945)"/><path d="M2615.11 1878.11 2615.11 1894.11" stroke="#000000" stroke-width="3.67208" stroke-linejoin="round" stroke-miterlimit="10" fill="none" fill-rule="evenodd"/><path d="M14.8668 28.3937 3.14578 10.7759 14.8668 10.7759 14.8668 28.3937ZM13.6461 32.2835 19.4844 32.2835 19.4844 10.7759 24.3815 10.7759 24.3815 7.06302 19.4844 7.06302 19.4844-0.716538 14.8668-0.716538 14.8668 7.06302-0.618648 7.06302-0.618648 11.3701 13.6461 32.2835Z" fill-rule="evenodd" transform="matrix(1 0 0 -1 2580 1944)"/><path d="M-0.255022 4.97757 4.74478 4.97757 4.74478-0.0222298-0.255022-0.0222298-0.255022 4.97757Z" fill-rule="evenodd" transform="matrix(1 0 0 -1 2612 1944)"/><path d="M10.8921 30.654C8.57665 30.654 6.83398 29.4971 5.66442 27.1836 4.49952 24.8746 3.91708 21.3995 3.91708 16.7581 3.91708 12.1356 4.49952 8.66743 5.66442 6.354 6.83398 4.04057 8.57665 2.88368 10.8921 2.88368 13.2265 2.88368 14.976 4.04057 16.1409 6.354 17.3105 8.66743 17.8955 12.1356 17.8955 16.7581 17.8955 21.3995 17.3105 24.8746 16.1409 27.1836 14.976 29.4971 13.2265 30.654 10.8921 30.654ZM10.8921 34.2687C14.6243 34.2687 17.4745 32.7723 19.4429 29.7789 21.4113 26.7906 22.3957 22.4503 22.3957 16.7581 22.3957 11.08 21.4113 6.7445 19.4429 3.75108 17.4745 0.762757 14.6243-0.731401 10.8921-0.731401 7.1645-0.731401 4.3165 0.762757 2.34809 3.75108 0.379685 6.7445-0.604338 11.08-0.604338 16.7581-0.604338 22.4503 0.379685 26.7906 2.34809 29.7789 4.3165 32.7723 7.1645 34.2687 10.8921 34.2687Z" fill-rule="evenodd" transform="matrix(1 0 0 -1 2625 1945)"/><path d="M2970.13 1878.11 2970.13 1894.11" stroke="#000000" stroke-width="3.67208" stroke-linejoin="round" stroke-miterlimit="10" fill="none" fill-rule="evenodd"/><path d="M14.8953 28.3937 3.17464 10.7759 14.8953 10.7759 14.8953 28.3937ZM13.6746 32.2835 19.5129 32.2835 19.5129 10.7759 24.4103 10.7759 24.4103 7.06302 19.5129 7.06302 19.5129-0.716538 14.8953-0.716538 14.8953 7.06302-0.590157 7.06302-0.590157 11.3701 13.6746 32.2835Z" fill-rule="evenodd" transform="matrix(1 0 0 -1 2935 1944)"/><path d="M-0.225305 4.97757 4.77486 4.97757 4.77486-0.0222298-0.225305-0.0222298-0.225305 4.97757Z" fill-rule="evenodd" transform="matrix(1 0 0 -1 2967 1944)"/><path d="M0.857691 33.2925 18.9154 33.2925 18.9154 29.4901 5.0695 29.4901 5.0695 21.3207C5.73505 21.5445 6.40096 21.7114 7.0665 21.821 7.73682 21.9305 8.40713 21.9853 9.07781 21.9853 12.872 21.9853 15.8766 20.9656 18.0918 18.9262 20.3121 16.8868 21.4221 14.1255 21.4221 10.6421 21.4221 7.05426 20.2832 4.26442 18.0045 2.2726 15.7259 0.285833 12.5148-0.707914 8.37082-0.707914 6.94256-0.707914 5.48753-0.588606 4.00573-0.350352 2.5287-0.112098 1.00107 0.245102-0.577905 0.72161L-0.577905 5.26033C0.787286 4.53115 2.19831 3.98796 3.65591 3.63076 5.11351 3.2732 6.65324 3.09478 8.27622 3.09478 10.9043 3.09478 12.9834 3.77133 14.514 5.12444 16.049 6.47755 16.8168 8.3169 16.8168 10.6421 16.8168 12.9627 16.049 14.7999 14.514 16.153 12.9834 17.5108 10.9043 18.1898 8.27622 18.1898 7.04707 18.1898 5.82012 18.0565 4.59611 17.7898 3.37649 17.523 2.13048 17.106 0.857691 16.539L0.857691 33.2925Z" fill-rule="evenodd" transform="matrix(1 0 0 -1 2980 1945)"/><path d="M3325.16 1878.11 3325.16 1894.11" stroke="#000000" stroke-width="3.67208" stroke-linejoin="round" stroke-miterlimit="10" fill="none" fill-rule="evenodd"/><path d="M0.842505 33.2925 18.0794 33.2925 18.0794 29.4901 4.86287 29.4901 4.86287 21.3207C5.49816 21.5445 6.13345 21.7114 6.76874 21.821 7.40893 21.9305 8.04877 21.9853 8.68862 21.9853 12.3107 21.9853 15.1787 20.9656 17.2932 18.9262 19.4126 16.8868 20.4721 14.1255 20.4721 10.6421 20.4721 7.05426 19.3846 4.26442 17.2099 2.2726 15.0349 0.285833 11.9697-0.707914 8.01412-0.707914 6.65078-0.707914 5.26189-0.588606 3.84745-0.350352 2.43756-0.112098 0.979364 0.245102-0.527834 0.72161L-0.527834 5.26033C0.7753 4.53115 2.12219 3.98796 3.51353 3.63076 4.90452 3.2732 6.37461 3.09478 7.92347 3.09478 10.4324 3.09478 12.4171 3.77133 13.8781 5.12444 15.3432 6.47755 16.0758 8.3169 16.0758 10.6421 16.0758 12.9627 15.3432 14.7999 13.8781 16.153 12.4171 17.5108 10.4324 18.1898 7.92347 18.1898 6.75019 18.1898 5.57936 18.0565 4.41064 17.7898 3.24681 17.523 2.05743 17.106 0.842505 16.539L0.842505 33.2925Z" fill-rule="evenodd" transform="matrix(1 0 0 -1 3292 1945)"/><path d="M-0.19595 4.97757 4.80421 4.97757 4.80421-0.0222298-0.19595-0.0222298-0.19595 4.97757Z" fill-rule="evenodd" transform="matrix(1 0 0 -1 3322 1944)"/><path d="M10.9474 30.654C8.63192 30.654 6.8896 29.4971 5.72004 27.1836 4.55515 24.8746 3.9727 21.3995 3.9727 16.7581 3.9727 12.1356 4.55515 8.66743 5.72004 6.354 6.8896 4.04057 8.63192 2.88368 10.9474 2.88368 13.2818 2.88368 15.0317 4.04057 16.1966 6.354 17.3661 8.66743 17.9511 12.1356 17.9511 16.7581 17.9511 21.3995 17.3661 24.8746 16.1966 27.1836 15.0317 29.4971 13.2818 30.654 10.9474 30.654ZM10.9474 34.2687C14.68 34.2687 17.5301 32.7723 19.4985 29.7789 21.4669 26.7906 22.4513 22.4503 22.4513 16.7581 22.4513 11.08 21.4669 6.7445 19.4985 3.75108 17.5301 0.762757 14.68-0.731401 10.9474-0.731401 7.21976-0.731401 4.37212 0.762757 2.40372 3.75108 0.43531 6.7445-0.549072 11.08-0.549072 16.7581-0.549072 22.4503 0.43531 26.7906 2.40372 29.7789 4.37212 32.7723 7.21976 34.2687 10.9474 34.2687Z" fill-rule="evenodd" transform="matrix(1 0 0 -1 3335 1945)"/><path d="M3.78363 28.6177 3.78363 2.95889 9.4254 2.95889C14.1872 2.95889 17.6724 3.98893 19.8807 6.04938 22.089 8.11447 23.1933 11.3726 23.1933 15.8238 23.1933 20.2414 22.089 23.4785 19.8807 25.5339 17.6724 27.5898 14.1872 28.6177 9.4254 28.6177L3.78363 28.6177ZM-0.882189 32.2881 8.70803 32.2881C15.3924 32.2881 20.297 30.9585 23.4225 28.2995 26.5527 25.6402 28.1177 21.4815 28.1177 15.8238 28.1177 10.1325 26.5453 5.95273 23.4005 3.28416 20.2602 0.620239 15.363-0.711902 8.70803-0.711902L-0.882189-0.711902-0.882189 32.2881Z" fill-rule="evenodd" transform="matrix(1 0 0 -1 2015 2007)"/><path d="M-0.233839 24.4304 3.76628 24.4304 3.76628-0.760035-0.233839-0.760035-0.233839 24.4304ZM-0.233839 34.24 3.76628 34.24 3.76628 28.9935-0.233839 28.9935-0.233839 34.24Z" fill-rule="evenodd" transform="matrix(1 0 0 -1 2051 2007)"/><path d="M17.1435 25.1043 17.1435 21.1077C15.993 21.7197 14.795 22.1777 13.5498 22.4815 12.3088 22.7901 11.0211 22.9443 9.6858 22.9443 7.65893 22.9443 6.13923 22.6234 5.12561 21.9817 4.11236 21.3403 3.60591 20.3752 3.60591 19.0869 3.60591 18.1077 3.96796 17.3385 4.69243 16.7802 5.4169 16.2218 6.87549 15.6905 9.06784 15.1859L10.4671 14.8628C13.365 14.2211 15.4247 13.3148 16.6464 12.1444 17.868 10.9736 18.4792 9.34006 18.4792 7.24374 18.4792 4.85361 17.5649 2.9607 15.7375 1.56464 13.9097 0.173767 11.3974-0.521671 8.20112-0.521671 6.87084-0.521671 5.48338-0.387178 4.03909-0.117821 2.59479 0.151536 1.07473 0.553164-0.521103 1.08706L-0.521103 5.45124C0.989668 4.63835 2.47649 4.0285 3.93973 3.62206 5.40261 3.22043 6.85405 3.01961 8.29369 3.01961 10.2162 3.01961 11.6934 3.35974 12.7256 4.04073 13.7628 4.72134 14.2814 5.68132 14.2814 6.92066 14.2814 8.06663 13.9072 8.94584 13.1591 9.55828 12.4157 10.1704 10.7773 10.7606 8.24401 11.3289L6.82331 11.6742C4.29464 12.2226 2.46684 13.0677 1.33993 14.2089 0.217663 15.35-0.343471 16.915-0.343471 18.9035-0.343471 21.3229 0.485362 23.1892 2.14267 24.5019 3.79998 25.8194 6.15317 26.4781 9.20259 26.4781 10.7087 26.4781 12.1269 26.3629 13.4572 26.1328 14.7925 25.9076 16.0212 25.5645 17.1435 25.1043Z" fill-rule="evenodd" transform="matrix(1 0 0 -1 2062 2008)"/><path d="M6.94522 31.3148 6.94522 24.2366 15.6194 24.2366 15.6194 21.0539 6.94522 21.0539 6.94522 7.52455C6.94522 5.49277 7.23091 4.18709 7.80268 3.60822 8.37407 3.02899 9.53861 2.7392 11.297 2.7392L15.6194 2.7392 15.6194-0.685519 11.297-0.685519C8.04414-0.685519 5.80021-0.0969565 4.56453 1.08017 3.32884 2.26232 2.71099 4.41045 2.71099 7.52455L2.71099 21.0539-0.380807 21.0539-0.380807 24.2366 2.71099 24.2366 2.71099 31.3148 6.94522 31.3148Z" fill-rule="evenodd" transform="matrix(1 0 0 -1 2084 2007)"/><path d="M12.2732 13.0699C8.97298 13.0699 6.68623 12.6805 5.41295 11.9017 4.13931 11.1229 3.5025 9.79096 3.5025 7.90509 3.5025 6.4064 3.98065 5.21634 4.93694 4.33454 5.89324 3.45792 7.19046 3.01961 8.82861 3.01961 11.0964 3.01961 12.9147 3.84955 14.283 5.51015 15.6513 7.17038 16.3353 9.37711 16.3353 12.1296L16.3353 13.0699 12.2732 13.0699ZM20.4189 14.8187 20.4189 0.14672 16.3353 0.14672 16.3353 4.04814C15.4026 2.49053 14.2405 1.33938 12.8486 0.595031 11.4563-0.149684 9.75453-0.521671 7.74223-0.521671 5.1996-0.521671 3.17587 0.217857 1.67031 1.69691 0.169389 3.17634-0.581069 5.15483-0.581069 7.63314-0.581069 10.5231 0.353787 12.7028 2.22422 14.1722 4.09893 15.6412 6.89242 16.3759 10.6043 16.3759L16.3353 16.3759 16.3353 16.795C16.3353 18.7394 15.7175 20.2429 14.4817 21.3059 13.2459 22.3689 11.511 22.9002 9.27602 22.9002 7.85587 22.9002 6.47109 22.7238 5.1217 22.3711 3.77695 22.0184 2.48437 21.4897 1.24397 20.7842L1.24397 24.6927C2.73524 25.2903 4.18434 25.736 5.5902 26.0298 6.99642 26.3288 8.36475 26.4781 9.69521 26.4781 13.2935 26.4781 15.9805 25.5133 17.7558 23.5834 19.5312 21.6586 20.4189 18.7368 20.4189 14.8187Z" fill-rule="evenodd" transform="matrix(1 0 0 -1 2104 2008)"/><path d="M20.3498 14.7971 20.3498-0.531944 16.2314-0.531944 16.2314 14.6592C16.2314 17.0628 15.7683 18.8595 14.842 20.0492 13.9158 21.2441 12.5285 21.8412 10.6807 21.8412 8.45556 21.8412 6.70073 21.123 5.41623 19.6867 4.13173 18.2551 3.48948 16.2986 3.48948 13.8177L3.48948-0.531944-0.650178-0.531944-0.650178 24.859 3.48948 24.859 3.48948 20.9126C4.47809 22.4408 5.63824 23.5822 6.97068 24.3366 8.30743 25.0914 9.84963 25.4686 11.5972 25.4686 14.4766 25.4686 16.6542 24.5664 18.1297 22.7624 19.6099 20.9584 20.3498 18.3034 20.3498 14.7971Z" fill-rule="evenodd" transform="matrix(1 0 0 -1 2133 2007)"/><path d="M19.4588 24.8764 19.4588 20.9239C18.2841 21.5849 17.1065 22.0799 15.9267 22.4078 14.7474 22.736 13.5556 22.9002 12.3515 22.9002 9.65505 22.9002 7.56049 22.031 6.0678 20.2922 4.57983 18.5582 3.83585 16.1214 3.83585 12.9818 3.83585 9.84246 4.57983 7.40306 6.0678 5.66428 7.56049 3.93032 9.65505 3.0637 12.3515 3.0637 13.5556 3.0637 14.7474 3.22747 15.9267 3.55574 17.1065 3.884 18.2841 4.37863 19.4588 5.03998L19.4588 1.13115C18.2983 0.582804 17.0971 0.171173 15.8548-0.103 14.6172-0.381991 13.2979-0.521671 11.8965-0.521671 8.08786-0.521671 5.06141 0.695438 2.81747 3.12965 0.578249 5.56387-0.541177 8.84803-0.541177 12.9818-0.541177 17.1744 0.590606 20.4708 2.85345 22.8709 5.12138 25.2755 8.22742 26.4781 12.1709 26.4781 13.4469 26.4781 14.6943 26.3433 15.9126 26.0739 17.1309 25.8094 18.3128 25.4103 19.4588 24.8764Z" fill-rule="evenodd" transform="matrix(1 0 0 -1 2161 2008)"/><path d="M22.3864 14.0618 22.3864 11.9973 3.64015 11.9973C3.81996 9.08811 4.66587 6.87175 6.17858 5.34824 7.69094 3.82509 9.7991 3.0637 12.5027 3.0637 14.0675 3.0637 15.5849 3.26193 17.0548 3.65874 18.5247 4.05555 19.9853 4.6528 21.4363 5.45124L21.4363 1.4546C19.971 0.812888 18.4705 0.32308 16.9342-0.0148202 15.3979-0.352721 13.8406-0.521671 12.2619-0.521671 8.30066-0.521671 5.16463 0.670984 2.85311 3.05629 0.541937 5.44642-0.614005 8.67908-0.614005 12.7543-0.614005 16.9613 0.482713 20.2992 2.67615 22.7679 4.86923 25.2414 7.8283 26.4781 11.5526 26.4781 14.8899 26.4781 17.5296 25.3637 19.4723 23.1351 21.4153 20.9117 22.3864 17.8872 22.3864 14.0618ZM18.3095 15.3033C18.2814 17.6105 17.6574 19.4519 16.4379 20.8283 15.2185 22.2095 13.6041 22.9002 11.5955 22.9002 9.32174 22.9002 7.50185 22.234 6.13577 20.9017 4.77004 19.5697 3.983 17.6935 3.77501 15.2741L18.3095 15.3033Z" fill-rule="evenodd" transform="matrix(1 0 0 -1 2186 2008)"/><path d="M9.64765 40.3952C7.70429 36.952 6.25853 33.5426 5.31037 30.1665 4.36641 26.7956 3.89443 23.3789 3.89443 19.9165 3.89443 16.4592 4.37097 13.0327 5.32405 9.63775 6.27713 6.24247 7.71833 2.82832 9.64765-0.605057L6.16098-0.605057C3.98532 2.91937 2.35568 6.38176 1.27241 9.78176 0.189142 13.1814-0.352317 16.5596-0.352317 19.9165-0.352317 23.2588 0.18458 26.6229 1.25837 30.0084 2.33708 33.3986 3.97128 36.861 6.16098 40.3952L9.64765 40.3952Z" fill-rule="evenodd" transform="matrix(1 0 0 -1 2230 2013)"/><path d="M14.8034 27.8894 8.58887 11.4671 21.0325 11.4671 14.8034 27.8894ZM12.2145 32.2881 17.4065 32.2881 30.2997-0.711902 25.5429-0.711902 22.4611 7.75388 7.21104 7.75388 4.12914-0.711902-0.700232-0.711902 12.2145 32.2881Z" fill-rule="evenodd" transform="matrix(1 0 0 -1 2244 2007)"/><path d="M20.3613 14.7971 20.3613-0.531944 16.2429-0.531944 16.2429 14.6592C16.2429 17.0628 15.7798 18.8595 14.8535 20.0492 13.9273 21.2441 12.5401 21.8412 10.6923 21.8412 8.4671 21.8412 6.71226 21.123 5.42776 19.6867 4.14326 18.2551 3.50102 16.2986 3.50102 13.8177L3.50102-0.531944-0.638645-0.531944-0.638645 24.859 3.50102 24.859 3.50102 20.9126C4.48962 22.4408 5.64978 23.5822 6.98185 24.3366 8.31897 25.0914 9.86116 25.4686 11.6088 25.4686 14.4881 25.4686 16.6657 24.5664 18.1408 22.7624 19.6214 20.9584 20.3613 18.3034 20.3613 14.7971Z" fill-rule="evenodd" transform="matrix(1 0 0 -1 2280 2007)"/><path d="M18.1667 22.5765C18.1667 25.6287 17.5344 27.9919 16.2697 29.6667 15.0098 31.3467 13.2379 32.1863 10.9535 32.1863 8.68874 32.1863 6.92421 31.3467 5.65954 29.6667 4.39451 27.9919 3.76218 25.6287 3.76218 22.5765 3.76218 19.5394 4.39451 17.1806 5.65954 15.501 6.92421 13.8211 8.68874 12.9815 10.9535 12.9815 13.2379 12.9815 15.0098 13.8211 16.2697 15.501 17.5344 17.1806 18.1667 19.5394 18.1667 22.5765ZM22.3947 12.6372C22.3947 8.27669 21.422 5.03169 19.4758 2.90258 17.5344 0.77385 14.5566-0.290702 10.5417-0.290702 9.05653-0.290702 7.65459-0.180996 6.33591 0.0387849 5.01722 0.258566 3.73776 0.598025 2.49751 1.05679L2.49751 5.15137C3.73776 4.48242 4.9632 3.9893 6.17421 3.67163 7.38486 3.34953 8.61771 3.18848 9.87275 3.18848 12.647 3.18848 14.7231 3.90877 16.1006 5.34898 17.4781 6.78957 18.1667 8.96743 18.1667 11.8826L18.1667 13.9703C17.2942 12.4566 16.1765 11.3259 14.8138 10.579 13.451 9.83177 11.8186 9.45833 9.91678 9.45833 6.76474 9.45833 4.2232 10.6548 2.29179 13.0472 0.360381 15.4449-0.605322 18.6212-0.605322 22.5765-0.605322 26.5414 0.360381 29.7203 2.29179 32.1131 4.2232 34.5108 6.76474 35.7094 9.91678 35.7094 11.8186 35.7094 13.451 35.336 14.8138 34.5887 16.1765 33.8418 17.2942 32.7137 18.1667 31.2048L18.1667 35.0944 22.3947 35.0944 22.3947 12.6372Z" fill-rule="evenodd" transform="matrix(1 0 0 -1 2307 2017)"/><path d="M17.165 25.1043 17.165 21.1077C16.0145 21.7197 14.8164 22.1777 13.5712 22.4815 12.3303 22.7901 11.0425 22.9443 9.70725 22.9443 7.68038 22.9443 6.16067 22.6234 5.14706 21.9817 4.1338 21.3403 3.62699 20.3752 3.62699 19.0869 3.62699 18.1077 3.98941 17.3385 4.71388 16.7802 5.43835 16.2218 6.89694 15.6905 9.08929 15.1859L10.4885 14.8628C13.3864 14.2211 15.4462 13.3148 16.6678 12.1444 17.8894 10.9736 18.5002 9.34006 18.5002 7.24374 18.5002 4.85361 17.5863 2.9607 15.7586 1.56464 13.9311 0.173767 11.4189-0.521671 8.22257-0.521671 6.89193-0.521671 5.50447-0.387178 4.06053-0.117821 2.61624 0.151536 1.09618 0.553164-0.499659 1.08706L-0.499659 5.45124C1.01111 4.63835 2.49794 4.0285 3.96081 3.62206 5.42405 3.22043 6.87549 3.01961 8.31514 3.01961 10.2376 3.01961 11.7148 3.35974 12.747 4.04073 13.7842 4.72134 14.3025 5.68132 14.3025 6.92066 14.3025 8.06663 13.9286 8.94584 13.1806 9.55828 12.4368 10.1704 10.7988 10.7606 8.2651 11.3289L6.84475 11.6742C4.31608 12.2226 2.48829 13.0677 1.36137 14.2089 0.239107 15.35-0.322026 16.915-0.322026 18.9035-0.322026 21.3229 0.506807 23.1892 2.16412 24.5019 3.82142 25.8194 6.17461 26.4781 9.22403 26.4781 10.7298 26.4781 12.148 26.3629 13.4786 26.1328 14.8139 25.9076 16.0427 25.5645 17.165 25.1043Z" fill-rule="evenodd" transform="matrix(1 0 0 -1 2336 2008)"/><path d="M6.96733 31.3148 6.96733 24.2366 15.6415 24.2366 15.6415 21.0539 6.96733 21.0539 6.96733 7.52455C6.96733 5.49277 7.25303 4.18709 7.82443 3.60822 8.39582 3.02899 9.56073 2.7392 11.3192 2.7392L15.6415 2.7392 15.6415-0.685519 11.3192-0.685519C8.06626-0.685519 5.82233-0.0969565 4.58664 1.08017 3.35096 2.26232 2.73311 4.41045 2.73311 7.52455L2.73311 21.0539-0.358689 21.0539-0.358689 24.2366 2.73311 24.2366 2.73311 31.3148 6.96733 31.3148Z" fill-rule="evenodd" transform="matrix(1 0 0 -1 2359 2007)"/><path d="M14.5174 20.9635C14.0443 21.2342 13.5296 21.4325 12.9736 21.5584 12.4176 21.689 11.8053 21.7541 11.1371 21.7541 8.75671 21.7541 6.92974 20.9876 5.65653 19.4544 4.38332 17.9215 3.74672 15.7183 3.74672 12.8457L3.74672-0.531944-0.482331-0.531944-0.482331 24.859 3.74672 24.859 3.74672 20.9126C4.6348 22.4554 5.78577 23.5991 7.20036 24.3439 8.62011 25.0936 10.3444 25.4686 12.3738 25.4686 12.6614 25.4686 12.981 25.4492 13.3322 25.4104 13.6835 25.3767 14.0712 25.3211 14.4957 25.2436L14.5174 20.9635Z" fill-rule="evenodd" transform="matrix(1 0 0 -1 2380 2007)"/><path d="M10.899 22.9002C8.69413 22.9002 6.94961 22.0161 5.66617 20.2481 4.38237 18.4797 3.74046 16.0577 3.74046 12.9818 3.74046 9.90582 4.37732 7.48383 5.65176 5.71578 6.93052 3.94773 8.67972 3.0637 10.899 3.0637 13.0941 3.0637 14.8311 3.94995 16.1102 5.72319 17.394 7.50124 18.0359 9.92064 18.0359 12.9818 18.0359 16.0284 17.394 18.443 16.1102 20.2259 14.8311 22.0087 13.0941 22.9002 10.899 22.9002ZM10.899 26.4781C14.4781 26.4781 17.2892 25.2829 19.3316 22.8928 21.3791 20.5074 22.4024 17.204 22.4024 12.9818 22.4024 8.77467 21.3791 5.47088 19.3316 3.07074 17.2892 0.675801 14.4781-0.521671 10.899-0.521671 7.30514-0.521671 4.48971 0.675801 2.45198 3.07074 0.418929 5.47088-0.597595 8.77467-0.597595 12.9818-0.597595 17.204 0.418929 20.5074 2.45198 22.8928 4.48971 25.2829 7.30514 26.4781 10.899 26.4781Z" fill-rule="evenodd" transform="matrix(1 0 0 -1 2396 2008)"/><path d="M18.3503 19.9841C19.3649 21.8606 20.5766 23.2438 21.9858 24.1336 23.3946 25.0237 25.0526 25.4686 26.9595 25.4686 29.5286 25.4686 31.5106 24.5422 32.9056 22.6899 34.3002 20.8424 34.9979 18.2116 34.9979 14.7971L34.9979-0.531944 30.9257-0.531944 30.9257 14.6592C30.9257 17.0917 30.5053 18.8957 29.6647 20.0712 28.8288 21.251 27.5536 21.8412 25.8392 21.8412 23.7399 21.8412 22.0794 21.123 20.8584 19.6867 19.6418 18.2551 19.0338 16.2986 19.0338 13.8177L19.0338-0.531944 14.9616-0.531944 14.9616 14.6592C14.9616 17.1064 14.5436 18.9151 13.7077 20.0855 12.8718 21.2558 11.5799 21.8412 9.83294 21.8412 7.76156 21.8412 6.11523 21.1204 4.89431 19.6794 3.67765 18.2379 3.06967 16.2843 3.06967 13.8177L3.06967-0.531944-1.00254-0.531944-1.00254 24.859 3.06967 24.859 3.06967 20.9126C3.99493 22.4701 5.10312 23.6185 6.39494 24.3586 7.6864 25.0987 9.22 25.4686 10.9954 25.4686 12.7895 25.4686 14.3135 24.9992 15.5674 24.0611 16.8217 23.1275 17.7491 21.7687 18.3503 19.9841Z" fill-rule="evenodd" transform="matrix(1 0 0 -1 2426 2007)"/><path d="M17.1753 25.1043 17.1753 21.1077C16.0248 21.7197 14.8268 22.1777 13.5812 22.4815 12.3406 22.7901 11.0529 22.9443 9.71761 22.9443 7.69074 22.9443 6.17068 22.6234 5.15742 21.9817 4.14417 21.3403 3.63736 20.3752 3.63736 19.0869 3.63736 18.1077 3.99977 17.3385 4.72424 16.7802 5.44871 16.2218 6.90694 15.6905 9.09965 15.1859L10.4989 14.8628C13.3968 14.2211 15.4565 13.3148 16.6782 12.1444 17.8998 10.9736 18.5106 9.34006 18.5106 7.24374 18.5106 4.85361 17.5967 2.9607 15.7689 1.56464 13.9411 0.173767 11.4292-0.521671 8.23293-0.521671 6.9023-0.521671 5.51483-0.387178 4.0709-0.117821 2.6266 0.151536 1.10654 0.553164-0.489294 1.08706L-0.489294 5.45124C1.02112 4.63835 2.5083 4.0285 3.97118 3.62206 5.43442 3.22043 6.88586 3.01961 8.32514 3.01961 10.2477 3.01961 11.7252 3.35974 12.7574 4.04073 13.7946 4.72134 14.3128 5.68132 14.3128 6.92066 14.3128 8.06663 13.939 8.94584 13.1906 9.55828 12.4472 10.1704 10.8088 10.7606 8.27547 11.3289L6.85512 11.6742C4.32645 12.2226 2.49865 13.0677 1.37174 14.2089 0.249472 15.35-0.311661 16.915-0.311661 18.9035-0.311661 21.3229 0.516814 23.1892 2.17412 24.5019 3.83179 25.8194 6.18498 26.4781 9.2344 26.4781 10.7402 26.4781 12.1584 26.3629 13.489 26.1328 14.8243 25.9076 16.0531 25.5645 17.1753 25.1043Z" fill-rule="evenodd" transform="matrix(1 0 0 -1 2469 2008)"/><path d="M-0.319331 40.3952 3.16769 40.3952C5.34335 36.861 6.97299 33.3986 8.05626 30.0084 9.13918 26.6229 9.68099 23.2588 9.68099 19.9165 9.68099 16.5596 9.13918 13.1814 8.05626 9.78176 6.97299 6.38176 5.34335 2.91937 3.16769-0.605057L-0.319331-0.605057C1.60999 2.82832 3.05119 6.24247 4.00427 9.63775 4.95735 13.0327 5.43389 16.4592 5.43389 19.9165 5.43389 23.3789 4.95735 26.7956 4.00427 30.1665 3.05119 33.5426 1.60999 36.952-0.319331 40.3952Z" fill-rule="evenodd" transform="matrix(1 0 0 -1 2494 2013)"/><path d="M1194.01 1750.11 1178.01 1750.11" stroke="#000000" stroke-width="3.67208" stroke-linejoin="round" stroke-miterlimit="10" fill="none" fill-rule="evenodd"/><path d="M10.7755 30.6397C8.46002 30.6397 6.7177 29.4828 5.54814 27.1694 4.38325 24.8607 3.8008 21.3853 3.8008 16.7438 3.8008 12.1214 4.38325 8.65358 5.54814 6.33978 6.7177 4.02635 8.46002 2.86946 10.7755 2.86946 13.1099 2.86946 14.8598 4.02635 16.0247 6.33978 17.1942 8.65358 17.7792 12.1214 17.7792 16.7438 17.7792 21.3853 17.1942 24.8607 16.0247 27.1694 14.8598 29.4828 13.1099 30.6397 10.7755 30.6397ZM10.7755 34.2548C14.5077 34.2548 17.3582 32.7581 19.3266 29.765 21.295 26.7767 22.2791 22.4361 22.2791 16.7438 22.2791 11.0658 21.295 6.73028 19.3266 3.73722 17.3582 0.748902 14.5077-0.745256 10.7755-0.745256 7.04786-0.745256 4.20022 0.748902 2.23182 3.73722 0.263411 6.73028-0.720972 11.0658-0.720972 16.7438-0.720972 22.4361 0.263411 26.7767 2.23182 29.765 4.20022 32.7581 7.04786 34.2548 10.7755 34.2548Z" fill-rule="evenodd" transform="matrix(1 0 0 -1 1136 1768)"/><path d="M1194.01 1495.07 1178.01 1495.07" stroke="#000000" stroke-width="3.67208" stroke-linejoin="round" stroke-miterlimit="10" fill="none" fill-rule="evenodd"/><path d="M4.91817 3.02643 21.2809 3.02643 21.2809-0.774656-0.719094-0.774656-0.719094 3.02643C1.05846 4.80135 3.48222 7.18271 6.5522 10.1698 9.62741 13.1619 11.5586 15.0924 12.3457 15.9606 13.8459 17.5832 14.8932 18.9574 15.4874 20.0837 16.0865 21.2099 16.3863 22.317 16.3863 23.405 16.3863 25.1803 15.7401 26.626 14.4476 27.7429 13.1552 28.8641 11.4719 29.425 9.39718 29.425 7.92647 29.425 6.37392 29.1792 4.73989 28.6875 3.11071 28.1959 1.36792 27.4494-0.488864 26.4473L-0.488864 31.014C1.39745 31.7439 3.16042 32.2951 4.79931 32.6673 6.44344 33.0395 7.94628 33.2257 9.30785 33.2257 12.8977 33.2257 15.7599 32.3598 17.894 30.6274 20.0281 28.8998 21.0952 26.5903 21.0952 23.6985 21.0952 22.3242 20.8279 21.0215 20.2931 19.7902 19.7635 18.5639 18.7929 17.1157 17.3816 15.4455 16.9955 15.0112 15.7647 13.7608 13.6901 11.6946 11.6202 9.62833 8.6964 6.73907 4.91817 3.02643Z" fill-rule="evenodd" transform="matrix(1 0 0 -1 1136 1512)"/><path d="M1194.01 1240.05 1178.01 1240.05" stroke="#000000" stroke-width="3.67208" stroke-linejoin="round" stroke-miterlimit="10" fill="none" fill-rule="evenodd"/><path d="M14.7502 28.3398 3.0296 10.7224 14.7502 10.7224 14.7502 28.3398ZM13.5296 32.23 19.3679 32.23 19.3679 10.7224 24.2653 10.7224 24.2653 7.00952 19.3679 7.00952 19.3679-0.770038 14.7502-0.770038 14.7502 7.00952-0.735199 7.00952-0.735199 11.3166 13.5296 32.23Z" fill-rule="evenodd" transform="matrix(1 0 0 -1 1135 1257)"/><path d="M1194.01 984.047 1178.01 984.047" stroke="#000000" stroke-width="3.67208" stroke-linejoin="round" stroke-miterlimit="10" fill="none" fill-rule="evenodd"/><path d="M11.1627 18.0041C9.14003 18.0041 7.53652 17.323 6.3515 15.9605 5.17115 14.6025 4.58097 12.7391 4.58097 10.3699 4.58097 8.01459 5.17115 6.1512 6.3515 4.77907 7.53652 3.4119 9.14003 2.72832 11.1627 2.72832 13.1854 2.72832 14.7868 3.4119 15.9671 4.77907 17.1471 6.1512 17.7373 8.01459 17.7373 10.3699 17.7373 12.7391 17.1471 14.6025 15.9671 15.9605 14.7868 17.323 13.1854 18.0041 11.1627 18.0041ZM20.1073 31.9032 20.1073 27.8651C18.9748 28.3893 17.8325 28.7899 16.6809 29.0658 15.5292 29.347 14.387 29.4873 13.2544 29.4873 10.2798 29.4873 8.00745 28.4995 6.43699 26.5235 4.87121 24.5478 3.97678 21.5627 3.753 17.5688 4.62874 18.8422 5.72792 19.8187 7.05088 20.4976 8.37887 21.1763 9.83725 21.5159 11.4267 21.5159 14.7724 21.5159 17.4162 20.5161 19.3577 18.517 21.2995 16.5222 22.2701 13.8066 22.2701 10.3699 22.2701 7.00338 21.259 4.30163 19.2363 2.26469 17.2139 0.232702 14.5227-0.783466 11.1627-0.783466 7.30807-0.783466 4.36221 0.668001 2.32515 3.57129 0.288443 6.47883-0.729909 10.6905-0.729909 16.2063-0.729909 21.3849 0.519414 25.5144 3.0177 28.5955 5.51634 31.6762 8.86882 33.2169 13.0759 33.2169 14.2084 33.2169 15.3507 33.1068 16.5023 32.8868 17.654 32.6665 18.8559 32.3389 20.1073 31.9032Z" fill-rule="evenodd" transform="matrix(1 0 0 -1 1136 1002)"/><path d="M1194.01 729.025 1178.01 729.025" stroke="#000000" stroke-width="3.67208" stroke-linejoin="round" stroke-miterlimit="10" fill="none" fill-rule="evenodd"/><path d="M10.7736 15.3998C8.61764 15.3998 6.92138 14.8356 5.68482 13.7071 4.45367 12.5787 3.83774 11.0291 3.83774 9.05768 3.83774 7.08201 4.45367 5.5296 5.68482 4.40115 6.92138 3.27271 8.61764 2.70848 10.7736 2.70848 12.9299 2.70848 14.6287 3.27519 15.8696 4.40824 17.1156 5.54589 17.7384 7.09583 17.7384 9.05768 17.7384 11.0291 17.1203 12.5787 15.8841 13.7071 14.6526 14.8356 12.9491 15.3998 10.7736 15.3998ZM6.23854 17.2819C4.29309 17.7502 2.77622 18.6353 1.68866 19.937 0.605807 21.2432 0.0643782 22.8328 0.0643782 24.7058 0.0643782 27.3232 1.01775 29.3927 2.92487 30.9143 4.83669 32.4363 7.45305 33.1971 10.7736 33.1971 14.1137 33.1971 16.7347 32.4363 18.6368 30.9143 20.5392 29.3927 21.4904 27.3232 21.4904 24.7058 21.4904 22.8328 20.9464 21.2432 19.8589 19.937 18.776 18.6353 17.2689 17.7502 15.3379 17.2819 17.5228 16.7857 19.2238 15.8121 20.4412 14.3602 21.6629 12.9137 22.2738 11.146 22.2738 9.05768 22.2738 5.87848 21.2821 3.43918 19.2983 1.73942 17.3145 0.0442736 14.4728-0.802947 10.7736-0.802947 7.07944-0.802947 4.23775 0.0442736 2.24926 1.73942 0.26547 3.43918-0.726244 5.87848-0.726244 9.05768-0.726244 11.146-0.112843 12.9137 1.1136 14.3602 2.3451 15.8121 4.0533 16.7857 6.23854 17.2819ZM4.57809 24.2843C4.57809 22.5895 5.11952 21.2666 6.20237 20.3163 7.29029 19.3656 8.81403 18.8903 10.7736 18.8903 12.7241 18.8903 14.2478 19.3656 15.3452 20.3163 16.4472 21.2666 16.998 22.5895 16.998 24.2843 16.998 25.984 16.4472 27.309 15.3452 28.2597 14.2478 29.21 12.7241 29.6853 10.7736 29.6853 8.81403 29.6853 7.29029 29.21 6.20237 28.2597 5.11952 27.309 4.57809 25.984 4.57809 24.2843Z" fill-rule="evenodd" transform="matrix(1 0 0 -1 1136 747)"/><path d="M1194.01 474.002 1178.01 474.002" stroke="#000000" stroke-width="3.67208" stroke-linejoin="round" stroke-miterlimit="10" fill="none" fill-rule="evenodd"/><path d="M-0.0956397 2.92572 7.32695 2.92572 7.32695 28.1037-0.750989 26.5123-0.750989 30.579 7.28383 32.17 11.8264 32.17 11.8264 2.92572 19.2489 2.92572 19.2489-0.829958-0.0956397-0.829958-0.0956397 2.92572Z" fill-rule="evenodd" transform="matrix(1 0 0 -1 1109 491)"/><path d="M10.7755 30.538C8.46002 30.538 6.7177 29.3815 5.54814 27.0677 4.38325 24.759 3.8008 21.2839 3.8008 16.6421 3.8008 12.02 4.38325 8.55185 5.54814 6.23842 6.7177 3.92463 8.46002 2.76809 10.7755 2.76809 13.1099 2.76809 14.8598 3.92463 16.0247 6.23842 17.1942 8.55185 17.7792 12.02 17.7792 16.6421 17.7792 21.2839 17.1942 24.759 16.0247 27.0677 14.8598 29.3815 13.1099 30.538 10.7755 30.538ZM10.7755 34.1531C14.5077 34.1531 17.3582 32.6564 19.3266 29.6633 21.295 26.675 22.2791 22.3347 22.2791 16.6421 22.2791 10.9645 21.295 6.62892 19.3266 3.63549 17.3582 0.647177 14.5077-0.846982 10.7755-0.846982 7.04786-0.846982 4.20022 0.647177 2.23182 3.63549 0.263411 6.62892-0.720972 10.9645-0.720972 16.6421-0.720972 22.3347 0.263411 26.675 2.23182 29.6633 4.20022 32.6564 7.04786 34.1531 10.7755 34.1531Z" fill-rule="evenodd" transform="matrix(1 0 0 -1 1136 492)"/><path d="M-0.782584 33.2144 20.8079 33.2144 20.8079 29.3375 3.83558 29.3375 3.83558 19.2747 20.0979 19.2747 20.0979 15.4056 3.83558 15.4056 3.83558 3.08346 21.2174 3.08346 21.2174-0.785656-0.782584-0.785656-0.782584 33.2144Z" fill-rule="evenodd" transform="matrix(-1.83697e-16 -1 -1 1.83697e-16 1076 1347)"/><path d="M20.2651 14.742 20.2651-0.586813 16.1467-0.586813 16.1467 14.6041C16.1467 17.0077 15.6836 18.8044 14.757 19.9941 13.8307 21.1889 12.4435 21.786 10.5957 21.786 8.37051 21.786 6.61567 21.0678 5.33153 19.6315 4.04704 18.2 3.40479 16.2438 3.40479 13.7627L3.40479-0.586813-0.735235-0.586813-0.735235 24.8038 3.40479 24.8038 3.40479 20.8575C4.39303 22.386 5.55355 23.527 6.88562 24.2818 8.22274 25.0361 9.76493 25.4133 11.5126 25.4133 14.3919 25.4133 16.5691 24.5115 18.0446 22.7075 19.5248 20.9036 20.2651 18.2483 20.2651 14.742Z" fill-rule="evenodd" transform="matrix(-1.83697e-16 -1 -1 1.83697e-16 1076 1318)"/><path d="M22.2983 14.004 22.2983 11.9395 3.55202 11.9395C3.73184 9.03032 4.57774 6.81396 6.09046 5.29044 7.60282 3.76729 9.71098 3.00554 12.4146 3.00554 13.9794 3.00554 15.4964 3.20413 16.9667 3.60094 18.4366 3.99738 19.8972 4.595 21.3482 5.39344L21.3482 1.3968C19.8829 0.755089 18.3823 0.265281 16.8461-0.072619 15.3098-0.410519 13.7525-0.57947 12.1738-0.57947 8.21254-0.57947 5.07651 0.613186 2.76498 2.9985 0.453814 5.38862-0.702128 8.62128-0.702128 12.6961-0.702128 16.9035 0.39459 20.2414 2.58767 22.7101 4.7811 25.1836 7.73982 26.4203 11.4645 26.4203 14.8018 26.4203 17.4415 25.3059 19.3841 23.0773 21.3271 20.8539 22.2983 17.8294 22.2983 14.004ZM18.2214 15.2455C18.1932 17.5527 17.5692 19.3941 16.3498 20.7705 15.1304 22.1517 13.516 22.8424 11.5073 22.8424 9.23362 22.8424 7.41373 22.1762 6.04765 20.8439 4.68156 19.5119 3.89488 17.6357 3.68688 15.2163L18.2214 15.2455Z" fill-rule="evenodd" transform="matrix(-1.83697e-16 -1 -1 1.83697e-16 1077 1291)"/><path d="M13.4506 20.9039C13.009 21.1747 12.5286 21.3729 12.0097 21.4988 11.4904 21.6294 10.9193 21.6949 10.2956 21.6949 8.07359 21.6949 6.36877 20.9281 5.18044 19.3952 3.99212 17.8619 3.39796 15.6588 3.39796 12.7862L3.39796-0.590837-0.549488-0.590837-0.549488 24.7998 3.39796 24.7998 3.39796 20.8531C4.22649 22.3958 5.30106 23.5398 6.62134 24.2847 7.94609 25.0343 9.55573 25.4089 11.4496 25.4089 11.7183 25.4089 12.0162 25.3895 12.3441 25.3511 12.6719 25.3171 13.0341 25.2615 13.43 25.1839L13.4506 20.9039Z" fill-rule="evenodd" transform="matrix(-1.83697e-16 -1 -1 1.83697e-16 1076 1261)"/><path d="M18.0661 21.8891C18.0661 24.8561 17.4337 27.1541 16.1691 28.7823 14.9092 30.4152 13.1373 31.2319 10.8529 31.2319 8.5881 31.2319 6.8232 30.4152 5.55853 28.7823 4.29387 27.1541 3.66153 24.8561 3.66153 21.8891 3.66153 18.9361 4.29387 16.6432 5.55853 15.0103 6.8232 13.377 8.5881 12.5608 10.8529 12.5608 13.1373 12.5608 14.9092 13.377 16.1691 15.0103 17.4337 16.6432 18.0661 18.9361 18.0661 21.8891ZM22.2941 12.2261C22.2941 7.98636 21.321 4.83189 19.3748 2.76195 17.4337 0.692015 14.4556-0.342596 10.4411-0.342596 8.95552-0.342596 7.55358-0.235939 6.2349-0.0222651 4.91658 0.191408 3.63711 0.521435 2.39687 0.967456L2.39687 4.94825C3.63711 4.29789 4.86256 3.81847 6.0732 3.50963 7.28422 3.19648 8.51706 3.03991 9.77174 3.03991 12.5464 3.03991 14.6225 3.74018 16 5.14037 17.3771 6.54092 18.0661 8.65826 18.0661 11.4924L18.0661 13.5221C17.1936 12.0501 16.0758 10.9512 14.7131 10.2251 13.3504 9.49859 11.7179 9.13553 9.81614 9.13553 6.6641 9.13553 4.12219 10.2983 2.19078 12.6247 0.259371 14.9557-0.706333 18.0437-0.706333 21.8891-0.706333 25.7439 0.259371 28.8344 2.19078 31.1608 4.12219 33.4918 6.6641 34.6571 9.81614 34.6571 11.7179 34.6571 13.3504 34.294 14.7131 33.5676 16.0758 32.8414 17.1936 31.7447 18.0661 30.2777L18.0661 34.0592 22.2941 34.0592 22.2941 12.2261Z" fill-rule="evenodd" transform="matrix(-1.83697e-16 -1 -1 1.83697e-16 1085 1245)"/><path d="M13.0145 6.75422C11.8256 3.82148 10.6633 1.90985 9.52795 1.01828 8.39776 0.122094 6.88567-0.326176 4.99204-0.326176L1.61551-0.326176 1.61551 3.0591 4.09639 3.0591C5.25612 3.0591 6.15658 3.32423 6.79776 3.85448 7.44337 4.38013 8.15547 5.62556 8.93367 7.59149L9.68972 9.43568-0.696581 33.6742 3.77358 33.6742 11.8035 14.4114 19.8334 33.6742 24.3035 33.6742 13.0145 6.75422Z" fill-rule="evenodd" transform="matrix(-1.83697e-16 -1 -1 1.83697e-16 1085 1217)"/><path d="M10.514 40.3299C8.37632 36.8871 6.78598 33.4772 5.7426 30.1015 4.70425 26.7305 4.18546 23.3138 4.18546 19.8514 4.18546 16.394 4.70927 12.9675 5.75804 9.57254 6.80644 6.17723 8.39176 2.76305 10.514-0.670357L6.67828-0.670357C4.28505 2.8541 2.49244 6.31652 1.30084 9.71619 0.10924 13.1162-0.486367 16.4945-0.486367 19.8514-0.486367 23.1937 0.104222 26.5578 1.28578 29.9434 2.47198 33.3336 4.26961 36.796 6.67828 40.3299L10.514 40.3299Z" fill-rule="evenodd" transform="matrix(-1.83697e-16 -1 -1 1.83697e-16 1082 1173)"/><path d="M-0.792681 34.1729 3.48586 34.1729 3.48586 13.5024 16.1889 24.3632 21.6225 24.3632 7.88322 12.5812 22.2074-0.827182 16.6552-0.827182 3.48586 11.4727 3.48586-0.827182-0.792681-0.827182-0.792681 34.1729Z" fill-rule="evenodd" transform="matrix(-1.83697e-16 -1 -1 1.83697e-16 1076 1155)"/><path d="M7.06474 42.4373 11.8269 42.4373 11.8269 11.0496C11.8269 6.981 11.0221 4.02852 9.41181 2.19221 7.8019 0.355522 5.21026-0.562637 1.63801-0.562637L-0.173561-0.562637-0.173561 3.27664 1.31329 3.27664C3.41654 3.27664 4.90111 3.84329 5.76626 4.97585 6.63179 6.10404 7.06474 8.12852 7.06474 11.0496L7.06474 42.4373Z" fill-rule="evenodd" transform="matrix(-1.83697e-16 -1 -1 1.83697e-16 1085 1135)"/><path d="M11.6591 37.3116 15.5999 37.3116 3.54045-0.688945-0.399939-0.688945 11.6591 37.3116Z" fill-rule="evenodd" transform="matrix(-1.83697e-16 -1 -1 1.83697e-16 1080 1119)"/><path d="M18.2436 19.9107C19.2582 21.7874 20.4699 23.1703 21.8791 24.0604 23.2879 24.9502 24.9459 25.395 26.8528 25.395 29.4219 25.395 31.4039 24.4691 32.7989 22.6168 34.1939 20.7693 34.8912 18.1382 34.8912 14.7237L34.8912-0.604739 30.819-0.604739 30.819 14.5862C30.819 17.0187 30.3989 18.8227 29.558 19.9977 28.7221 21.178 27.4469 21.7681 25.7325 21.7681 23.6332 21.7681 21.973 21.0499 20.7517 19.6132 19.5354 18.1817 18.9271 16.2255 18.9271 13.7444L18.9271-0.604739 14.8549-0.604739 14.8549 14.5862C14.8549 17.0333 14.4369 18.842 13.601 20.0124 12.7651 21.1827 11.4732 21.7681 9.72623 21.7681 7.65485 21.7681 6.00888 21.0473 4.78761 19.6063 3.57094 18.1649 2.96296 16.2109 2.96296 13.7444L2.96296-0.604739-1.10925-0.604739-1.10925 24.7859 2.96296 24.7859 2.96296 20.8395C3.88822 22.3966 4.99676 23.5453 6.28823 24.2854 7.5797 25.0252 9.11329 25.395 10.8887 25.395 12.6828 25.395 14.2068 24.926 15.4607 23.988 16.715 23.0544 17.6424 21.6953 18.2436 19.9107Z" fill-rule="evenodd" transform="matrix(-1.83697e-16 -1 -1 1.83697e-16 1076 1099)"/><path d="M10.7935 22.8235C8.58859 22.8235 6.84407 21.9391 5.56063 20.171 4.27682 18.403 3.63492 15.981 3.63492 12.9051 3.63492 9.82912 4.27214 7.40713 5.54622 5.63908 6.82534 3.87066 8.57418 2.98664 10.7935 2.98664 12.9886 2.98664 14.7259 3.87326 16.0047 5.64612 17.2885 7.42418 17.9304 9.84394 17.9304 12.9051 17.9304 15.9517 17.2885 18.3663 16.0047 20.1492 14.7259 21.932 12.9886 22.8235 10.7935 22.8235ZM10.7935 26.4011C14.3725 26.4011 17.1837 25.2062 19.2261 22.8161 21.2735 20.4308 22.2973 17.127 22.2973 12.9051 22.2973 8.6976 21.2735 5.39418 19.2261 2.99405 17.1837 0.599106 14.3725-0.598736 10.7935-0.598736 7.19996-0.598736 4.38417 0.599106 2.34643 2.99405 0.313386 5.39418-0.703138 8.6976-0.703138 12.9051-0.703138 17.127 0.313386 20.4308 2.34643 22.8161 4.38417 25.2062 7.19996 26.4011 10.7935 26.4011Z" fill-rule="evenodd" transform="matrix(-1.83697e-16 -1 -1 1.83697e-16 1077 1056)"/><path d="M-0.30948 34.1634 3.691 34.1634 3.691-0.836619-0.30948-0.836619-0.30948 34.1634Z" fill-rule="evenodd" transform="matrix(-1.83697e-16 -1 -1 1.83697e-16 1076 1026)"/><path d="M-0.429167 40.3176 3.0575 40.3176C5.23352 36.7833 6.8628 33.3209 7.94607 29.9307 9.02934 26.5451 9.57115 23.1814 9.57115 19.8387 9.57115 16.4822 9.02934 13.1039 7.94607 9.70386 6.8628 6.30383 5.23352 2.84176 3.0575-0.683054L-0.429167-0.683054C1.50015 2.75035 2.94135 6.16489 3.89443 9.55985 4.84751 12.9552 5.32405 16.3813 5.32405 19.8387 5.32405 23.3011 4.84751 26.7178 3.89443 30.0888 2.94135 33.4649 1.50015 36.8744-0.429167 40.3176Z" fill-rule="evenodd" transform="matrix(-1.83697e-16 -1 -1 1.83697e-16 1082 1014)"/><path d="M1606.5 479.5 1612.89 554.502 1629.1 721.69 1645.45 869.741 1661.95 1000.69 1678.59 1116.37 1695.38 1218.41 1712.32 1308.29 1729.41 1387.32 1746.65 1456.68 1764.04 1517.43 1781.58 1570.51 1799.28 1616.77 1817.13 1656.98 1835.14 1691.81 1853.31 1721.87 1871.64 1747.69 1890.13 1769.77 1908.78 1788.55 1927.6 1804.4 1946.59 1817.67 1965.74 1828.68 1985.06 1837.69 2004.55 1844.96 2024.21 1850.69 2044.05 1855.09 2064.06 1858.32 2084.24 1860.55 2104.61 1861.9 2125.15 1862.5 2145.88 1862.45 2166.78 1861.85 2187.88 1860.78 2209.15 1859.32 2230.62 1857.53 2252.28 1855.47 2274.12 1853.19 2296.16 1850.73 2318.39 1848.13 2340.82 1845.42 2363.44 1842.64 2386.27 1839.81 2409.3 1836.95 2432.53 1834.08 2455.96 1831.21 2479.6 1828.37 2503.45 1825.56 2527.51 1822.79 2551.78 1820.06 2576.26 1817.4 2600.96 1814.8 2625.88 1812.26 2651.02 1809.79 2676.38 1807.39 2701.96 1805.07 2727.77 1802.83 2753.81 1800.65 2780.07 1798.56 2806.57 1796.53 2833.3 1794.59 2860.26 1792.72 2887.46 1790.91 2914.91 1789.19 2942.59 1787.53 2970.53 1785.93 2998.7 1784.41 3027.12 1782.95 3055.79 1781.55 3084.72 1780.21 3113.9 1778.93 3143.34 1777.71 3173.04 1776.54 3203 1775.42 3233.22 1774.36 3263.71 1773.34 3294.47 1772.37 3325.5 1771.45" stroke="#1F77B4" stroke-width="6.88511" stroke-linecap="square" stroke-linejoin="round" stroke-miterlimit="10" fill="none" fill-rule="evenodd"/><path d="M1194 1878 1194 474" stroke="#000000" stroke-width="3.67208" stroke-linecap="square" stroke-miterlimit="8" fill="none" fill-rule="evenodd"/><path d="M3325 1878 3325 474" stroke="#000000" stroke-width="3.67208" stroke-linecap="square" stroke-miterlimit="8" fill="none" fill-rule="evenodd"/><path d="M1194 1878 3325 1878" stroke="#000000" stroke-width="3.67208" stroke-linecap="square" stroke-miterlimit="8" fill="none" fill-rule="evenodd"/><path d="M1194 474 3325 474" stroke="#000000" stroke-width="3.67208" stroke-linecap="square" stroke-miterlimit="8" fill="none" fill-rule="evenodd"/><path d="M1357.75 748.5 1357.75 560 1331.5 560 1384 507.5 1436.5 560 1410.25 560 1410.25 748.5Z" stroke="#A40000" stroke-width="4.58333" stroke-miterlimit="8" fill="#FF0000" fill-rule="evenodd"/></g></svg>